<?xml version="1.0" encoding="UTF-8"?>
<!-- Created with Inkscape (http://www.inkscape.org/) -->
<svg width="64" height="64" version="1.1" viewBox="0 0 16.933 16.933" xmlns="http://www.w3.org/2000/svg" xmlns:cc="http://creativecommons.org/ns#" xmlns:dc="http://purl.org/dc/elements/1.1/" xmlns:rdf="http://www.w3.org/1999/02/22-rdf-syntax-ns#">
 <metadata>
  <rdf:RDF>
   <cc:Work rdf:about="">
    <dc:format>image/svg+xml</dc:format>
    <dc:type rdf:resource="http://purl.org/dc/dcmitype/StillImage"/>
    <dc:title/>
   </cc:Work>
  </rdf:RDF>
 </metadata>
 <g transform="translate(0 -280.07)">
  <path transform="matrix(.26458 0 0 .26458 0 280.07)" d="m3.9844 0c-1.0177-3.465e-6 -2.0347 0.39013-2.8145 1.1699-1.5596 1.5596-1.5596 4.0713 0 5.6309l25.199 25.199-25.199 25.199c-1.5596 1.5596-1.5596 4.0713 0 5.6309 1.5596 1.5596 4.0713 1.5596 5.6309 0l25.199-25.199 25.199 25.199c1.5596 1.5596 4.0713 1.5596 5.6309 0 1.5596-1.5596 1.5596-4.0713 0-5.6309l-25.199-25.199 25.199-25.199c1.5596-1.5596 1.5596-4.0713 0-5.6309-1.5596-1.5596-4.0713-1.5596-5.6309 0l-25.199 25.199-25.199-25.199c-0.77978-0.77978-1.7987-1.1699-2.8164-1.1699z" fill="#f00" style="paint-order:markers stroke fill"/>
 </g>
</svg>
