<?xml version="1.0" encoding="UTF-8"?>
<!-- Created with Inkscape (http://www.inkscape.org/) -->
<svg width="100" height="100" version="1.1" viewBox="0 0 26.458 26.458" xmlns="http://www.w3.org/2000/svg" xmlns:cc="http://creativecommons.org/ns#" xmlns:dc="http://purl.org/dc/elements/1.1/" xmlns:rdf="http://www.w3.org/1999/02/22-rdf-syntax-ns#">
 <metadata>
  <rdf:RDF>
   <cc:Work rdf:about="">
    <dc:format>image/svg+xml</dc:format>
    <dc:type rdf:resource="http://purl.org/dc/dcmitype/StillImage"/>
    <dc:title/>
   </cc:Work>
  </rdf:RDF>
 </metadata>
 <g transform="translate(0 -270.54)">
  <path d="m1.3229 275.86c-0.4501 0-0.8449 0.26763-1.0837 0.67593a0.79383 0.94912 0 0 1 0.11627 0.0575l12.873 7.6966 12.875-7.6966a0.79383 0.94912 0 0 1 0.11472-0.0587c-0.23884-0.40751-0.63304-0.6747-1.0826-0.6747zm25.135 2.642-12.874 7.696a0.79383 0.94912 0 0 1-0.709 0l-12.875-7.6948v11.592c0 0.87628 0.59002 1.5817 1.3229 1.5817h23.813c0.7329 0 1.3229-0.70544 1.3229-1.5817z" fill="#221f7e" style="paint-order:stroke markers fill"/>
 </g>
</svg>
