<?xml version="1.0" encoding="UTF-8"?>
<!-- Created with Inkscape (http://www.inkscape.org/) -->
<svg width="60" height="60" version="1.1" viewBox="0 0 15.875 15.875" xmlns="http://www.w3.org/2000/svg" xmlns:cc="http://creativecommons.org/ns#" xmlns:dc="http://purl.org/dc/elements/1.1/" xmlns:rdf="http://www.w3.org/1999/02/22-rdf-syntax-ns#" xmlns:xlink="http://www.w3.org/1999/xlink">
 <defs>
  <linearGradient id="linearGradient964" x1="5.2637" x2="52.469" y1="6.2914" y2="52.593" gradientTransform="matrix(.30813 0 0 .30813 -1.253 -1.1655)" gradientUnits="userSpaceOnUse">
   <stop stop-color="#06f" offset="0"/>
   <stop stop-color="#0cf" offset="1"/>
  </linearGradient>
 </defs>
 <metadata>
  <rdf:RDF>
   <cc:Work rdf:about="">
    <dc:format>image/svg+xml</dc:format>
    <dc:type rdf:resource="http://purl.org/dc/dcmitype/StillImage"/>
    <dc:title/>
   </cc:Work>
  </rdf:RDF>
 </metadata>
 <path d="m4.7729 0.0019699c-0.034505-0.00421-0.070319-0.00178-0.10532 0.00843h-0.0024l-1.4076 0.41164c-0.13999 0.040831-0.22318 0.19221-0.18235 0.3322l0.30933 1.0622c-0.37379 0.21581-0.713 0.48495-1.005 0.80281l-0.96651-0.532c-0.12788-0.070128-0.29397-0.02136-0.36409 0.10652l-0.70532 1.2879c-0.070127 0.12788-0.02076 0.29336 0.10712 0.36349l0.9665 0.53019c-0.11087 0.41749-0.16017 0.84672-0.14082 1.2782l-1.058 0.30933c-0.13999 0.040831-0.22258 0.19221-0.18175 0.3322l0.40923 1.41c0.040831 0.13999 0.19461 0.22318 0.33461 0.18235l1.0574-0.30933c0.21595 0.37421 0.48703 0.71037 0.80522 1.0026l-0.52959 0.96891c-0.07013 0.12788-0.021362 0.29397 0.10652 0.36409l1.2879 0.70532c0.12787 0.07012 0.29337 0.02078 0.36349-0.10712l0.53019-0.9665c0.41747 0.11088 0.84672 0.15777 1.2782 0.13842l0.30933 1.0604c0.040831 0.14 0.19222 0.22256 0.3322 0.18175l1.41-0.41164c0.13999-0.04083 0.22257-0.19221 0.18175-0.3322l-0.30933-1.0574c0.37411-0.21587 0.71099-0.48716 1.0032-0.80522l0.9671 0.52959c0.12788 0.070127 0.29336 0.021362 0.36349-0.10652l0.70773-1.2879c0.07012-0.12786 0.02078-0.29337-0.10712-0.36349l-0.9641-0.52779c0.11204-0.41831 0.16204-0.85041 0.14323-1.2831l1.0532-0.30692c0.13999-0.040831 0.22256-0.19222 0.18175-0.3322l-0.40923-1.41c-0.02047-0.070221-0.07023-0.12671-0.12999-0.15948-0.05976-0.03277-0.13443-0.043325-0.20461-0.022869l-1.0574 0.30933c-0.21708-0.37446-0.48809-0.71305-0.80763-1.005l0.532-0.9665c0.070126-0.12788 0.021361-0.29397-0.10652-0.36409l-1.2879-0.70532c-0.12788-0.070128-0.29336-0.020758-0.36349 0.10712l-0.52779 0.9641c-0.41807-0.10989-0.84885-0.1566-1.2806-0.13601l-0.30933-1.0604c-0.030623-0.10499-0.12337-0.17755-0.22688-0.19017zm-0.057774 0.31535 0.35988 1.2397 0.12518-0.011434c0.48265-0.03826 0.96877 0.012715 1.4329 0.15045l0.11795 0.036108 0.61625-1.126 1.2169 0.66861-0.61866 1.1284 0.095687 0.081846c0.36738 0.31531 0.67377 0.69489 0.90331 1.1212l0.05898 0.10953 1.2325-0.35928 0.38937 1.333-1.2331 0.35928 9e-3 0.12277c0.03628 0.48347-0.01637 0.97115-0.15647 1.4353l-0.0343 0.11795 1.126 0.61625-0.66861 1.2169-1.1284-0.61866-0.081846 0.095688c-0.31585 0.36657-0.69472 0.67222-1.1211 0.90091l-0.11194 0.058977 0.36169 1.2349-1.333 0.38937-0.35928-1.2373-0.12518 0.0090281c-0.48251 0.036892-0.96695-0.015784-1.4305-0.15467l-0.12036-0.034303-0.61866 1.1284-1.215-0.66861 0.61926-1.1284-0.095688-0.079438c-0.36673-0.31587-0.67214-0.69702-0.90091-1.1236l-0.058977-0.11194-1.2373 0.36169-0.38696-1.333 1.2373-0.35928-0.0090271-0.12518c-0.036874-0.4825 0.013393-0.96693 0.15226-1.4305l0.03671-0.12036-1.1284-0.61866 0.66861-1.2144 1.1284 0.61866 0.081846-0.095687c0.31592-0.36607 0.69494-0.67018 1.1212-0.8985l0.11194-0.058977-0.36169-1.2373zm0.79078 2.5535c-0.92187-0.0028656-1.8171 0.48622-2.2911 1.3505-0.68936 1.2571-0.22978 2.839 1.0273 3.5284 1.2571 0.68936 2.8402 0.22737 3.5296-1.0297 0.68936-1.2571 0.22797-2.8402-1.0291-3.5296-0.39283-0.21543-0.81768-0.31825-1.2367-0.31956zm-0.00302 0.30752c0.36925 0.00166 0.74387 0.093047 1.0911 0.28345 1.1111 0.60929 1.518 1.9997 0.90873 3.1107-0.60929 1.1111-2.0009 1.515-3.1119 0.90572-1.1111-0.60929-1.5162-1.9985-0.90692-3.1095 0.41889-0.76385 1.2067-1.1941 2.0191-1.1904zm6.2203 5.6155c-0.02933-0.00271-0.05923 5.547e-4 -0.08846 0.01023l-0.89429 0.29549c-0.05866 0.019409-0.10347 0.062213-0.12939 0.11374-0.02578 0.051323-0.0335 0.11372-0.01384 0.17272l0.20943 0.63671c-0.21103 0.13756-0.39991 0.30256-0.56631 0.49168l-0.6006-0.30271c-0.11004-0.05533-0.24918-0.0077-0.30451 0.10231l-0.42127 0.83952c-0.055333 0.11004-0.00955 0.24918 0.1005 0.30452l0.59579 0.3003c-0.05159 0.24737-0.06682 0.49893-0.04995 0.75106l-0.63912 0.21123c-0.11693 0.03869-0.18191 0.16954-0.14323 0.28646l0.29549 0.89188c0.03868 0.11692 0.16954 0.18432 0.28646 0.14564l0.63731-0.21184c0.13691 0.21108 0.30021 0.40201 0.48867 0.56871l-0.3003 0.6006c-0.05533 0.11004-0.0095 0.24918 0.1005 0.30451l0.84133 0.42127c0.11002 0.05533 0.2492 0.0096 0.30452-0.1005l0.3003-0.5982c0.24662 0.05192 0.49955 0.07093 0.75106 0.05476l0.20883 0.63671c0.03869 0.11693 0.17014 0.18191 0.28706 0.14323l0.89368-0.29549c0.11693-0.03869 0.18191-0.16954 0.14323-0.28646l-0.20942-0.63731c0.21122-0.13717 0.40201-0.29988 0.56871-0.48867l0.5982 0.3003c0.11002 0.05533 0.2498 0.0096 0.30512-0.1005l0.42307-0.84133c0.05533-0.11002 0.0096-0.2492-0.1005-0.30452l-0.6006-0.3003c0.05193-0.24662 0.07093-0.49954 0.05476-0.75106l0.63671-0.20883c0.11693-0.03869 0.18432-0.17194 0.14564-0.28887l-0.29548-0.89187c-0.03868-0.11693-0.16953-0.18191-0.28646-0.14323l-0.63671 0.20943c-0.13718-0.21128-0.30286-0.40195-0.49168-0.56871l0.3003-0.5982c0.05532-0.11001 0.0102-0.2498-0.0999-0.30512l-0.83952-0.42307c-0.11004-0.055333-0.24918-0.00955-0.30452 0.1005l-0.3003 0.5982c-0.24774-0.052675-0.50009-0.07324-0.75286-0.057172l-0.20943-0.6319c-0.029016-0.087697-0.11002-0.14777-0.19799-0.15587zm-0.068 0.32859 0.25456 0.77092 0.12518-0.013841c0.30213-0.03355 0.60693-0.0112 0.90091 0.066199l0.12036 0.031896 0.3665-0.72578 0.69328 0.35025-0.36349 0.72819 0.09509 0.07703c0.23676 0.18972 0.43874 0.42037 0.59158 0.68245l0.06138 0.10953 0.77332-0.25757 0.24554 0.73962-0.77573 0.25697 0.01625 0.12518c0.03391 0.30152 0.01048 0.60493-0.0662 0.8985l-0.0319 0.12036 0.72819 0.3659-0.35025 0.69629-0.72819-0.3665-0.07703 0.09809c-0.18972 0.23685-0.4203 0.43628-0.68245 0.58917l-0.10893 0.06379 0.25697 0.77332-0.73962 0.24554-0.25697-0.77573-0.12518 0.01384c-0.30151 0.0339-0.60492 0.01285-0.8985-0.06379l-0.12036-0.0319-0.3659 0.72578-0.69629-0.34845 0.3665-0.72759-0.09809-0.07944c-0.23644-0.18977-0.43657-0.42049-0.58917-0.68245l-0.06138-0.10953-0.77573 0.25757-0.24554-0.73962 0.77814-0.25697-0.01625-0.12277c-0.03477-0.30157-0.01213-0.6088 0.06379-0.90271l0.02949-0.11856-0.72337-0.3659 0.34845-0.69388 0.72759 0.36349 0.07944-0.09509c0.18935-0.23726 0.42048-0.43821 0.68245-0.59158l0.10713-0.06379-0.25517-0.77092zm0.6 1.4925c-0.61037 0.01921-1.1922 0.36259-1.4853 0.94544-0.42628 0.84778-0.08288 1.8859 0.7649 2.3121 0.84778 0.42628 1.8859 0.08288 2.3121-0.7649 0.42628-0.84778 0.08167-1.8835-0.7661-2.3097-0.26493-0.13321-0.54824-0.19168-0.82568-0.18295zm0.14624 0.30873c0.1831 0.01227 0.36687 0.06078 0.54163 0.14865 0.69901 0.35148 0.98097 1.1985 0.62949 1.8975-0.35148 0.69901-1.2003 0.97976-1.8993 0.62829-0.69901-0.35148-0.97796-1.1997-0.62648-1.8987 0.26361-0.52426 0.80536-0.81253 1.3547-0.77573z" color="#000000" color-rendering="auto" dominant-baseline="auto" fill="url(#linearGradient964)" image-rendering="auto" shape-rendering="auto" solid-color="#000000" style="font-feature-settings:normal;font-variant-alternates:normal;font-variant-caps:normal;font-variant-ligatures:normal;font-variant-numeric:normal;font-variant-position:normal;isolation:auto;mix-blend-mode:normal;paint-order:stroke markers fill;shape-padding:0;text-decoration-color:#000000;text-decoration-line:none;text-decoration-style:solid;text-indent:0;text-orientation:mixed;text-transform:none;white-space:normal"/>
</svg>
