<?xml version="1.0" encoding="UTF-8" standalone="no"?>
<!-- Created with Inkscape (http://www.inkscape.org/) -->

<svg
   xmlns:dc="http://purl.org/dc/elements/1.1/"
   xmlns:cc="http://creativecommons.org/ns#"
   xmlns:rdf="http://www.w3.org/1999/02/22-rdf-syntax-ns#"
   xmlns:svg="http://www.w3.org/2000/svg"
   xmlns="http://www.w3.org/2000/svg"
   xmlns:sodipodi="http://sodipodi.sourceforge.net/DTD/sodipodi-0.dtd"
   xmlns:inkscape="http://www.inkscape.org/namespaces/inkscape"
   width="59.999508"
   height="33.638435"
   version="1.1"
   viewBox="0 0 15.87487 8.9001694"
   id="svg1742"
   sodipodi:docname="gear.svg"
   inkscape:version="0.92.4 (5da689c313, 2019-01-14)">
  <defs
     id="defs1746" />
  <sodipodi:namedview
     pagecolor="#ffffff"
     bordercolor="#666666"
     borderopacity="1"
     objecttolerance="10"
     gridtolerance="10"
     guidetolerance="10"
     inkscape:pageopacity="0"
     inkscape:pageshadow="2"
     inkscape:window-width="2560"
     inkscape:window-height="1375"
     id="namedview1744"
     showgrid="false"
     fit-margin-top="0"
     fit-margin-left="0"
     fit-margin-right="0"
     fit-margin-bottom="0"
     inkscape:zoom="18.746529"
     inkscape:cx="34.325901"
     inkscape:cy="11.867878"
     inkscape:window-x="0"
     inkscape:window-y="0"
     inkscape:window-maximized="1"
     inkscape:current-layer="svg1742" />
  <metadata
     id="metadata1712">
    <rdf:RDF>
      <cc:Work
         rdf:about="">
        <dc:format>image/svg+xml</dc:format>
        <dc:type
           rdf:resource="http://purl.org/dc/dcmitype/StillImage" />
        <dc:title />
      </cc:Work>
    </rdf:RDF>
  </metadata>
  <rect
     id="rect1714"
     style="fill:#ffffff;stroke:#cccccc;stroke-width:0.39686999;stroke-linecap:square;paint-order:stroke markers fill"
     height="8.5032997"
     width="15.478"
     y="0.19843756"
     x="0.19843499" />
  <rect
     id="rect1716"
     style="fill:#80b3ff;paint-order:stroke markers fill"
     ry="1.1369e-13"
     rx="1.1369e-13"
     height="1.1513"
     width="15.478"
     y="0.19843756"
     x="0.19843499" />
  <g
     style="fill:#ffffff"
     id="g1724"
     transform="translate(-5.0067902e-6,-284.61156)">
    <circle
       id="circle1718"
       style="paint-order:stroke markers fill"
       r="0"
       cy="285.39001"
       cx="15.013" />
    <circle
       id="circle1720"
       style="paint-order:stroke markers fill"
       r="0"
       cy="285.38"
       cx="13.82" />
    <circle
       id="circle1722"
       style="paint-order:stroke markers fill"
       r="0"
       cy="285.39001"
       cx="12.627" />
  </g>
  <path
     style="fill:#0066ff"
     inkscape:connector-curvature="0"
     id="path1726"
     d="m 0.19843499,0.19844 v 1.1513 H 9.732735 l -1.47,-1.1513 z" />
  <g
     style="fill:#ffffff"
     id="g1734"
     transform="translate(-5.0067902e-6,-284.61156)">
    <ellipse
       id="ellipse1728"
       style="paint-order:stroke markers fill"
       ry="0.31255999"
       rx="0.31472999"
       cy="285.39001"
       cx="13.166" />
    <ellipse
       id="ellipse1730"
       style="paint-order:stroke markers fill"
       ry="0.31255999"
       rx="0.31472999"
       cy="285.39001"
       cx="15.057" />
    <ellipse
       id="ellipse1732"
       style="paint-order:stroke markers fill"
       ry="0.31255999"
       rx="0.31472999"
       cy="285.39001"
       cx="14.111" />
  </g>
  <path
     inkscape:connector-curvature="0"
     id="path1736"
     style="fill:#80b3ff;paint-order:markers stroke fill"
     d="m 10.288995,4.99844 -0.07306,0.29715 a 1.3291,1.3291 0 0 0 -0.39255,0.06 l -0.15847,-0.2618 -0.54572,0.33032 0.15862,0.26206 a 1.3291,1.3291 0 0 0 -0.23506,0.31978 l -0.29746,-0.0731 -0.15232,0.61951 0.29716,0.073 a 1.3291,1.3291 0 0 0 0.06003,0.39255 l -0.26181,0.15848 0.33033,0.54572 0.26206,-0.15863 a 1.3291,1.3291 0 0 0 0.31978,0.23506 L 9.527387,8.096 l 0.61953,0.15233 0.07306,-0.29716 a 1.3291,1.3291 0 0 0 0.39254,-0.06 l 0.15847,0.2618 0.54572,-0.33031 -0.15862,-0.26206 a 1.3291,1.3291 0 0 0 0.23506,-0.31978 l 0.29746,0.0731 0.15232,-0.61952 -0.29716,-0.073 a 1.3291,1.3291 0 0 0 -0.06003,-0.39255 l 0.26181,-0.15848 -0.33033,-0.54572 -0.26206,0.15863 a 1.3291,1.3291 0 0 0 -0.31977,-0.23507 l 0.07313,-0.29745 z m 0.15109,0.7215 a 0.93039,0.93039 0 0 1 0.68134,1.1256 0.93039,0.93039 0 0 1 -1.1256,0.68134 0.93039,0.93039 0 0 1 -0.68134,-1.1256 0.93039,0.93039 0 0 1 1.1256,-0.68133 z" />
  <path
     inkscape:connector-curvature="0"
     id="path1738"
     style="fill:#0066ff;paint-order:markers stroke fill"
     d="m 6.105895,1.90844 v 0.29157 a 2.1266,2.1266 0 0 0 -0.45595,0.12076 l -0.14506,-0.2513 -0.55242,0.31899 0.14506,0.2513 a 2.1266,2.1266 0 0 0 -0.33228,0.33455 l -0.25274,-0.14588 -0.31899,0.55242 0.25295,0.14599 a 2.1266,2.1266 0 0 0 -0.12149,0.45502 h -0.29251 v 0.63798 h 0.29158 a 2.1266,2.1266 0 0 0 0.12076,0.45595 l -0.25129,0.14507 0.31899,0.55241 0.25129,-0.14507 a 2.1266,2.1266 0 0 0 0.33457,0.33229 l -0.14589,0.25274 0.55242,0.31899 0.146,-0.25295 a 2.1266,2.1266 0 0 0 0.45502,0.1215 v 0.29251 h 0.63798 V 6.4017 a 2.1266,2.1266 0 0 0 0.45595,-0.12076 l 0.14506,0.25128 0.55242,-0.31899 -0.14506,-0.25129 a 2.1266,2.1266 0 0 0 0.33228,-0.33456 l 0.25274,0.14589 0.31899,-0.55241 -0.25295,-0.146 a 2.1266,2.1266 0 0 0 0.12149,-0.45502 h 0.29251 V 3.98186 H 8.525745 A 2.1266,2.1266 0 0 0 8.404985,3.52591 L 8.656275,3.38085 8.337285,2.82843 8.085995,2.9735 A 2.1266,2.1266 0 0 0 7.751425,2.6412 l 0.14589,-0.25274 -0.55242,-0.31899 -0.146,0.25296 A 2.1266,2.1266 0 0 0 6.743875,2.20094 v -0.2925 z m 0.31899,0.66455 a 1.7279,1.7279 0 0 1 1.7279,1.7279 1.7279,1.7279 0 0 1 -1.7279,1.7278 1.7279,1.7279 0 0 1 -1.7279,-1.7278 1.7279,1.7279 0 0 1 1.7279,-1.7279 z" />
</svg>
