<?xml version="1.0" encoding="UTF-8"?>
<!-- Created with Inkscape (http://www.inkscape.org/) -->
<svg width="60" height="60" version="1.1" viewBox="0 0 15.875 15.875" xmlns="http://www.w3.org/2000/svg" xmlns:cc="http://creativecommons.org/ns#" xmlns:dc="http://purl.org/dc/elements/1.1/" xmlns:rdf="http://www.w3.org/1999/02/22-rdf-syntax-ns#">
 <metadata>
  <rdf:RDF>
   <cc:Work rdf:about="">
    <dc:format>image/svg+xml</dc:format>
    <dc:type rdf:resource="http://purl.org/dc/dcmitype/StillImage"/>
    <dc:title/>
   </cc:Work>
  </rdf:RDF>
 </metadata>
 <g transform="translate(0 -281.12)">
  <rect x=".19844" y="284.81" width="15.478" height="8.5033" fill="#fff" stroke="#ccc" stroke-linecap="square" stroke-width=".39687" style="paint-order:stroke markers fill"/>
  <rect x=".19844" y="284.81" width="15.478" height="1.1513" rx="1.1369e-13" ry="1.1369e-13" fill="#87decd" style="paint-order:stroke markers fill"/>
  <g fill="#fff">
   <circle cx="15.013" cy="285.39" r="0" style="paint-order:stroke markers fill"/>
   <circle cx="13.82" cy="285.38" r="0" style="paint-order:stroke markers fill"/>
   <circle cx="12.627" cy="285.39" r="0" style="paint-order:stroke markers fill"/>
  </g>
  <path d="m0.19844 284.81v1.1513h9.5343l-1.47-1.1513z" fill="#37c8ab"/>
  <g fill="#fff">
   <ellipse cx="13.166" cy="285.39" rx=".31473" ry=".31256" style="paint-order:stroke markers fill"/>
   <ellipse cx="15.057" cy="285.39" rx=".31473" ry=".31256" style="paint-order:stroke markers fill"/>
   <ellipse cx="14.111" cy="285.39" rx=".31473" ry=".31256" style="paint-order:stroke markers fill"/>
  </g>
  <path d="m10.289 289.61-0.07306 0.29715a1.3291 1.3291 0 0 0-0.39255 0.06l-0.15847-0.2618-0.54572 0.33032 0.15862 0.26206a1.3291 1.3291 0 0 0-0.23506 0.31978l-0.29746-0.0731-0.15232 0.61951 0.29716 0.073a1.3291 1.3291 0 0 0 0.06003 0.39255l-0.26181 0.15848 0.33033 0.54572 0.26206-0.15863a1.3291 1.3291 0 0 0 0.31978 0.23506l-0.073138 0.29746 0.61953 0.15233 0.07306-0.29716a1.3291 1.3291 0 0 0 0.39254-0.06l0.15847 0.2618 0.54572-0.33031-0.15862-0.26206a1.3291 1.3291 0 0 0 0.23506-0.31978l0.29746 0.0731 0.15232-0.61952-0.29716-0.073a1.3291 1.3291 0 0 0-0.06003-0.39255l0.26181-0.15848-0.33033-0.54572-0.26206 0.15863a1.3291 1.3291 0 0 0-0.31977-0.23507l0.07313-0.29745zm0.15109 0.7215a0.93039 0.93039 0 0 1 0.68134 1.1256 0.93039 0.93039 0 0 1-1.1256 0.68134 0.93039 0.93039 0 0 1-0.68134-1.1256 0.93039 0.93039 0 0 1 1.1256-0.68133z" fill="#87decd" style="paint-order:markers stroke fill"/>
  <path d="m6.1059 286.52v0.29157a2.1266 2.1266 0 0 0-0.45595 0.12076l-0.14506-0.2513-0.55242 0.31899 0.14506 0.2513a2.1266 2.1266 0 0 0-0.33228 0.33455l-0.25274-0.14588-0.31899 0.55242 0.25295 0.14599a2.1266 2.1266 0 0 0-0.12149 0.45502h-0.29251v0.63798h0.29158a2.1266 2.1266 0 0 0 0.12076 0.45595l-0.25129 0.14507 0.31899 0.55241 0.25129-0.14507a2.1266 2.1266 0 0 0 0.33457 0.33229l-0.14589 0.25274 0.55242 0.31899 0.146-0.25295a2.1266 2.1266 0 0 0 0.45502 0.1215v0.29251h0.63798v-0.29158a2.1266 2.1266 0 0 0 0.45595-0.12076l0.14506 0.25128 0.55242-0.31899-0.14506-0.25129a2.1266 2.1266 0 0 0 0.33228-0.33456l0.25274 0.14589 0.31899-0.55241-0.25295-0.146a2.1266 2.1266 0 0 0 0.12149-0.45502h0.29251v-0.63798h-0.29158a2.1266 2.1266 0 0 0-0.12076-0.45595l0.25129-0.14506-0.31899-0.55242-0.25129 0.14507a2.1266 2.1266 0 0 0-0.33457-0.3323l0.14589-0.25274-0.55242-0.31899-0.146 0.25296a2.1266 2.1266 0 0 0-0.45502-0.12149v-0.2925zm0.31899 0.66455a1.7279 1.7279 0 0 1 1.7279 1.7279 1.7279 1.7279 0 0 1-1.7279 1.7278 1.7279 1.7279 0 0 1-1.7279-1.7278 1.7279 1.7279 0 0 1 1.7279-1.7279z" fill="#37c8ab" style="paint-order:markers stroke fill"/>
 </g>
</svg>
