<?xml version="1.0" encoding="UTF-8"?>
<!-- Created with Inkscape (http://www.inkscape.org/) -->
<svg width="60" height="60" version="1.1" viewBox="0 0 15.875 15.875" xmlns="http://www.w3.org/2000/svg" xmlns:cc="http://creativecommons.org/ns#" xmlns:dc="http://purl.org/dc/elements/1.1/" xmlns:rdf="http://www.w3.org/1999/02/22-rdf-syntax-ns#">
 <metadata>
  <rdf:RDF>
   <cc:Work rdf:about="">
    <dc:format>image/svg+xml</dc:format>
    <dc:type rdf:resource="http://purl.org/dc/dcmitype/StillImage"/>
    <dc:title/>
   </cc:Work>
  </rdf:RDF>
 </metadata>
 <g transform="translate(0 -281.12)">
  <rect x=".19844" y="284.81" width="15.478" height="8.5033" fill="#fff" stroke="#ccc" stroke-linecap="square" stroke-width=".39687" style="paint-order:stroke markers fill"/>
  <rect x=".19844" y="284.81" width="15.478" height="1.1513" rx="1.1369e-13" ry="1.1369e-13" fill="#ff80b2" style="paint-order:stroke markers fill"/>
  <g fill="#fff">
   <circle cx="15.013" cy="285.39" r="0" style="paint-order:stroke markers fill"/>
   <circle cx="13.82" cy="285.38" r="0" style="paint-order:stroke markers fill"/>
   <circle cx="12.627" cy="285.39" r="0" style="paint-order:stroke markers fill"/>
  </g>
  <path d="m0.19844 284.81v1.1513h9.5343l-1.47-1.1513z" fill="#f06"/>
  <g fill="#fff">
   <ellipse cx="13.166" cy="285.39" rx=".31473" ry=".31256" style="paint-order:stroke markers fill"/>
   <ellipse cx="15.057" cy="285.39" rx=".31473" ry=".31256" style="paint-order:stroke markers fill"/>
   <ellipse cx="14.111" cy="285.39" rx=".31473" ry=".31256" style="paint-order:stroke markers fill"/>
  </g>
  <g transform="matrix(1.0999 0 0 1.0999 -.80775 -28.86)" stroke-width=".9092">
   <path d="m10.089 289.55-0.06643 0.27017a1.2084 1.2084 0 0 0-0.3569 0.0546l-0.14408-0.23803-0.49617 0.30033 0.14422 0.23826a1.2084 1.2084 0 0 0-0.21372 0.29074l-0.27045-0.0665-0.13849 0.56326 0.27018 0.0664a1.2084 1.2084 0 0 0 0.054579 0.3569l-0.23803 0.14409 0.30033 0.49617 0.23826-0.14423a1.2084 1.2084 0 0 0 0.29074 0.21372l-0.066497 0.27045 0.56327 0.1385 0.066428-0.27018a1.2084 1.2084 0 0 0 0.3569-0.0546l0.14408 0.23803 0.49617-0.30032-0.14422-0.23826a1.2084 1.2084 0 0 0 0.21372-0.29074l0.27045 0.0665 0.13849-0.56326-0.27018-0.0664a1.2084 1.2084 0 0 0-0.05458-0.3569l0.23803-0.14409-0.30033-0.49617-0.23826 0.14423a1.2084 1.2084 0 0 0-0.29074-0.21373l0.06649-0.27044zm0.13737 0.65599a0.8459 0.8459 0 0 1 0.61948 1.0234 0.8459 0.8459 0 0 1-1.0234 0.61947 0.8459 0.8459 0 0 1-0.61947-1.0234 0.8459 0.8459 0 0 1 1.0234-0.61946z" fill="#ff80b2" style="paint-order:markers stroke fill"/>
   <path d="m6.2859 286.75v0.2651a1.9335 1.9335 0 0 0-0.41455 0.10979l-0.13189-0.22848-0.50226 0.29003 0.13189 0.22848a1.9335 1.9335 0 0 0-0.30211 0.30417l-0.22979-0.13263-0.29002 0.50225 0.22998 0.13274a1.9335 1.9335 0 0 0-0.11046 0.4137h-0.26595v0.58005h0.2651a1.9335 1.9335 0 0 0 0.1098 0.41455l-0.22847 0.13189 0.29002 0.50225 0.22847-0.13189a1.9335 1.9335 0 0 0 0.30419 0.30211l-0.13264 0.22979 0.50226 0.29003 0.13274-0.22998a1.9335 1.9335 0 0 0 0.4137 0.11046v0.26595h0.58005v-0.2651a1.9335 1.9335 0 0 0 0.41455-0.1098l0.13189 0.22847 0.50226-0.29003-0.13189-0.22847a1.9335 1.9335 0 0 0 0.30211-0.30418l0.22979 0.13264 0.29002-0.50225-0.22998-0.13274a1.9335 1.9335 0 0 0 0.11046-0.4137h0.26595v-0.58005h-0.2651a1.9335 1.9335 0 0 0-0.1098-0.41455l0.22847-0.13189-0.29002-0.50225-0.22847 0.13189a1.9335 1.9335 0 0 0-0.30419-0.30212l0.13264-0.22979-0.50226-0.29003-0.13274 0.22999a1.9335 1.9335 0 0 0-0.4137-0.11046v-0.26594zm0.29002 0.60421a1.571 1.571 0 0 1 1.571 1.571 1.571 1.571 0 0 1-1.571 1.571 1.571 1.571 0 0 1-1.571-1.571 1.571 1.571 0 0 1 1.571-1.571z" fill="#f06" style="paint-order:markers stroke fill"/>
  </g>
 </g>
</svg>
