<?xml version="1.0" encoding="UTF-8"?>
<!-- Created with Inkscape (http://www.inkscape.org/) -->
<svg width="100" height="100" version="1.1" viewBox="0 0 26.458 26.458" xmlns="http://www.w3.org/2000/svg" xmlns:cc="http://creativecommons.org/ns#" xmlns:dc="http://purl.org/dc/elements/1.1/" xmlns:rdf="http://www.w3.org/1999/02/22-rdf-syntax-ns#" xmlns:xlink="http://www.w3.org/1999/xlink">
 <defs>
  <linearGradient id="linearGradient2788" x1=".16817" x2="26.01" y1="271.22" y2="296.05" gradientUnits="userSpaceOnUse">
   <stop stop-color="#9393ac" offset="0"/>
   <stop stop-color="#6f6f91" offset="1"/>
  </linearGradient>
 </defs>
 <metadata>
  <rdf:RDF>
   <cc:Work rdf:about="">
    <dc:format>image/svg+xml</dc:format>
    <dc:type rdf:resource="http://purl.org/dc/dcmitype/StillImage"/>
    <dc:title/>
   </cc:Work>
  </rdf:RDF>
 </metadata>
 <g transform="translate(0 -270.54)" fill="url(#linearGradient2788)">
  <path d="m13.418 271.09a13.418 13.418 0 0 0-13.418 13.418 13.418 13.418 0 0 0 5.1302 10.533 13.186 13.186 0 0 1-4.4998-9.9064 13.186 13.186 0 0 1 5.2236-10.497c-0.15854 0.16689-0.31936 0.33202-0.45889 0.51469-0.087955 0.11514-0.17464 0.23367-0.23466 0.36555-0.049708 0.1092-0.068737 0.23007-0.10064 0.34573-0.043645 0.15823-0.05557 0.23415-0.083957 0.3958-0.00835 0.0476 0.022416 0.1655 0.04954 0.20546 0.049094 0.0727 0.042103 0.0627 0.07822 0.14236 0.039656 0.0875-0.00819 0.26988-0.015123 0.31236-0.00797 0.1214-0.00753 0.21176 0.03546 0.43386 0.00991 0.0714 0.097434 0.2259 0.06727 0.32227-0.021204 0.13567 0.089849 0.38027 0.15696 0.56371 0.075833 0.28773 0.076298 0.31103 0.30193 0.56006 0.054478 0.0153 0.062403-0.0432 0.080306-0.097 0.018714-0.0561-0.040222-0.15762-0.046932-0.17104-0.051499-0.11062-0.12018-0.15844-0.10064-0.29202 0.010281-0.1914-0.00275-0.36783-0.11107-0.5538-0.091132-0.1953-0.10233-0.33571-0.059969-0.64089 0.011753-0.0382 0.040155-0.0817 0.079263-0.0907 0.048573-0.0111 0.10604 0.0206 0.13715 0.0594 0.020886 0.0261 0.013707 0.0655 0.018773 0.0986 0.021349 0.13919 0.013609 0.28325 0.050061 0.41926 0.061095 0.22796 0.16918 0.44162 0.27846 0.6508 0.083061 0.15899 0.21937 0.28944 0.28524 0.45628 0.061948 0.15689 0.11478 0.32916 0.097515 0.49696-0.00944 0.0917-0.10804 0.16277-0.10742 0.255 7.065e-4 0.10618 0.0529 0.21624 0.12724 0.29203 0.43621 0.44489 1.6711 0.7951 1.6979 0.78168 0.026848-0.0134 0.23857-0.14416 0.26543-0.15123 0.02683-7e-3 0.20212-0.0187 0.2915 0.0203 0.23783 0.10389 0.33492 0.41802 0.56736 0.53346 0.090412 0.0443 0.20118 0.0224 0.29828 0.0501 0.25093 0.0713 0.52169 0.13202 0.72484 0.29567 0.10775 0.0868 0.14646 0.23596 0.23518 0.34208 0.09382 0.11227 0.20641 0.20725 0.31184 0.30871 0.10377 0.0999 0.19354 0.21856 0.31549 0.29515 0.14422 0.0906 0.33961 0.0835 0.47662 0.18461 0.06534 0.0482 0.07636 0.15868 0.1507 0.19137 0.08416 0.037 0.20848 0.0428 0.27534-0.0203 0.03771-0.0356-0.0034-0.10804 0.01981-0.15436 0.02936-0.0588 0.08406-0.10495 0.14132-0.13714 0.05939-0.0333 0.13227-0.0697 0.19764-0.0506 0.07369 0.0215 0.112 0.10646 0.158 0.16792 0.06221 0.0831 0.12339 0.16995 0.15748 0.26803 0.02933 0.0843 0.02087 0.17774 0.03702 0.26543 0.01538 0.0835 0.05089 0.16345 0.05684 0.24822 0.01231 0.1781 0.02961 0.37218-0.04693 0.53346-0.04416 0.0931-0.14575 0.14566-0.2211 0.21589-0.1426 0.1329-0.31985 0.23281-0.43647 0.38902-0.07112 0.0953-0.11405 0.21018-0.15227 0.32279-0.05726 0.16863-0.14671 0.34699-0.11368 0.52199 0.02116 0.11208 0.19516 0.17027 0.18982 0.2842-7e-3 0.15053-0.24478 0.20617-0.28472 0.35147-0.04067 0.14797-0.01933 0.32785 0.06623 0.45524 0.07985 0.11899 0.27072 0.11544 0.37024 0.2185 0.45536 0.47141 0.70977 1.1133 0.93969 1.7271 0.0307 0.0819 0.0061 0.18532 0.05684 0.25656 0.20689 0.29029 0.62083 0.35303 0.91101 0.56006 0.20674 0.1475 0.4949 0.24792 0.58874 0.48392 0.23326 0.58669-0.12968 1.2567-0.23727 1.8789-0.03257 0.18833-0.09726 0.37077-0.12359 0.56006-0.03665 0.26367 0.02139 0.54017-0.04745 0.79732-0.09329 0.3485-0.40103 0.61673-0.48392 0.96785-0.02617 0.11085 0.01551 0.22873 0 0.34157-0.06267 0.45568-0.31343 0.87252-0.37233 1.3287-0.01854 0.14357-0.01829 0.29182 0.0068 0.43438 0.0265 0.15075 0.03857 0.32905 0.14966 0.43439 0.17789 0.16858 0.46304 0.17898 0.70711 0.20129 0.27931 0.0255 0.72613 0.17711 0.83748-0.0803 0.0087-0.0201-0.02126-0.0407-0.04015-0.0522-0.06334-0.0375-0.14771-0.0149-0.2185-0.0355-0.12555-0.0365-0.26995-0.0599-0.36034-0.15435-0.05899-0.0617-0.11018-0.15693-0.09022-0.23988 0.03078-0.12791 0.18918-0.18268 0.2915-0.26543 0.11948-0.0966 0.27212-0.15439 0.37494-0.26855 0.06849-0.0761 0.11468-0.17153 0.15175-0.267 0.02908-0.0749 0.0182-0.16261 0.05371-0.23466 0.03723-0.0755 0.1196-0.12124 0.16113-0.19451 0.05619-0.0991 0.02152-0.25536 0.11368-0.32226 0.13941-0.10122 0.41072 0.12222 0.51678-0.0136 0.03808-0.0488-0.05128-0.12-0.04015-0.18095 0.01542-0.0842 0.06868-0.16873 0.1408-0.21485 0.20385-0.13049 0.49793-7e-3 0.71806-0.10742 0.16883-0.0771 0.3217-0.20683 0.42291-0.36242 0.01277-0.0196 0.03276-0.0475 0.02034-0.0673-0.03011-0.048-0.13558 0.0198-0.16791-0.0266-0.02604-0.0375-2.06e-4 -0.0971 0.0266-0.13401 0.04825-0.0665 0.1364-0.0967 0.21485-0.12099 0.09653-0.0299 0.20492 1e-3 0.30193-0.0271 0.18633-0.0544 0.35963-0.15411 0.51678-0.26804 0.2587-0.18756 0.46272-0.44127 0.68469-0.67113 0.14739-0.15262 0.32653-0.28444 0.42969-0.46984 0.04408-0.0792 0.03913-0.17792 0.07353-0.26178 0.06686-0.16303 0.13215-0.33675 0.255-0.46307 0.20622-0.21206 0.48609-0.35101 0.765-0.4495 0.1578-0.0558 0.34384-7e-3 0.49696-0.074 0.11348-0.05 0.20507-0.14273 0.28837-0.23466 0.14959-0.16502 0.25767-0.36413 0.3692-0.55693 0.08265-0.14288 0.1615-0.28931 0.2211-0.44325 0.07134-0.18425 0.12141-0.37695 0.16113-0.57049 0.03129-0.15249-4.39e-4 -0.31984 0.06049-0.46307 0.05607-0.13181 0.18326-0.22023 0.26856-0.3353 0.11307-0.15253 0.19978-0.32478 0.32227-0.46984 0.06429-0.0762 0.16218-0.1232 0.21432-0.20807 0.11883-0.19356 0.1916-0.42388 0.20129-0.6508 0.0085-0.19902 0.02977-0.46145-0.12724-0.58404-0.05997-0.0466-0.15743 0.0348-0.2284 7e-3 -0.25231-0.0976-0.33064-0.46754-0.58352-0.56371-0.10046-0.0381-0.21855 0.0416-0.32227 0.0136-0.24376-0.0661-0.40837-0.30368-0.63776-0.40936-0.21855-0.10064-0.49139-0.0736-0.69095-0.20806-0.20717-0.13955-0.28409-0.41704-0.46984-0.58405-0.05537-0.0498-0.14521-0.0598-0.18773-0.12098-0.10724-0.15416-0.02789-0.38705-0.12098-0.55015-0.04393-0.077-0.12226-0.12959-0.19451-0.18095-0.18353-0.13041-0.37828-0.26241-0.59708-0.31549-0.21524-0.0519-0.46003 0.0922-0.66435 7e-3 -0.17222-0.072-0.25576-0.27238-0.38954-0.40257-0.30862-0.30036-0.54802-0.72517-0.95272-0.87242-0.09679-0.0352-0.20799-8e-3 -0.30871 0.0136-0.14827 0.0317-0.27141 0.17396-0.42291 0.16791-0.11696-5e-3 -0.19998-0.13539-0.31549-0.15436-0.13581-0.0222-0.28014 0.10114-0.40935 0.0537-0.09367-0.0343-0.11719-0.16804-0.20129-0.22162-0.18967-0.121-0.44149-0.1032-0.64402-0.20129-0.05362-0.0259-0.08851-0.0926-0.14758-0.10064-0.03998-5e-3 -0.07817 0.0221-0.1142 0.0402-0.1325 0.0666-0.22676 0.20695-0.3692 0.24822-0.07524 0.0215-0.15832-0.0242-0.23466-7e-3 -0.05656 0.0129-0.10509 0.0496-0.15436 0.0803-0.07064 0.044-0.14784 0.0838-0.20129 0.14757-0.09445 0.11272-0.09008 0.29274-0.19503 0.3958-0.05642 0.0554-0.13534 0.10419-0.21432 0.10117-0.17021-7e-3 -0.27659-0.21968-0.44325-0.255-0.08362-0.0178-0.1732 2e-3 -0.255 0.0266-0.09672 0.0293-0.16837 0.12748-0.26856 0.1408-0.13182 0.0174-0.26699-0.0342-0.38902-0.0871-0.079-0.0342-0.15924-0.0784-0.2138-0.14497-0.08268-0.10088-0.13445-0.23157-0.15175-0.36085-0.02539-0.1898 0.0318-0.38316 0.07614-0.56945 0.03567-0.14988 0.2079-0.29299 0.15175-0.43647-0.0392-0.10019-0.18166-0.12097-0.28472-0.15175-0.13392-0.04-0.278-0.033-0.4177-0.0381-0.22143-7e-3 -0.51038 0.17805-0.66435 0.0188-0.0705-0.0729-0.01431-0.20763 0.01877-0.30349 0.04008-0.11613 0.16404-0.18921 0.20911-0.3035 0.04695-0.11903 0.0052-0.26256 0.05684-0.37963 0.05266-0.11933 0.25332-0.17375 0.24666-0.30402-0.0023-0.0446-0.05685-0.0714-0.09491-0.0949-0.06808-0.042-0.14786-0.0746-0.22788-0.0756-0.2042-4e-3 -0.4583 0.0129-0.58822 0.17052-0.044454 0.0539 0.00661 0.14402-0.018773 0.20911-0.049185 0.12616-0.13578 0.2458-0.24718 0.32279-0.16303 0.11271-0.37277 0.1462-0.56944 0.17052-0.13828 0.0172-0.29901 0.0551-0.41718-0.0188-0.067235-0.042-0.080247-0.13756-0.1142-0.20911-0.093599-0.19748-0.21964-0.39012-0.24666-0.60699-0.028428-0.2282-0.01291-0.48052 0.094908-0.68365 0.03991-0.0752 0.14769-0.0966 0.18982-0.17052 0.031928-0.0561 0.024348-0.12674 0.038067-0.18981 0.023493-0.10797 0.011786-0.23298 0.076135-0.32279 0.069523-0.0971 0.199-0.1321 0.3035-0.18982 0.19073-0.10534 0.37069-0.27211 0.58822-0.28472 0.15381-9e-3 0.28373 0.13146 0.43647 0.15175 0.17607 0.0233 0.36316 0.0174 0.5319-0.0381 0.13508-0.0444 0.22501-0.18377 0.36034-0.22736 0.19908-0.0642 0.42771-0.10386 0.62629-0.0381 0.1492 0.0494 0.31111 0.15441 0.36086 0.3035 0.02671 0.0801-0.06592 0.1627-0.05684 0.24665 0.02862 0.2645 0.08457 0.653 0.34156 0.72172 0.09664 0.0259 0.18975-0.0888 0.24666-0.17105 0.0742-0.10727 0.10558-0.24963 0.09491-0.37963-0.01694-0.20617-0.20999-0.36585-0.24666-0.56944-0.02133-0.11849-0.04043-0.25598 0.01877-0.36086 0.24423-0.43241 0.99307-0.4005 1.2338-0.83487v-1e-3c0.05901-0.10649-0.02592-0.24985 0.01356-0.36503 0.04424-0.12908 0.17003-0.21436 0.23883-0.33218 0.0652-0.11166 0.05662-0.27883 0.16322-0.35199 0.1674-0.11494 0.42197 0.0423 0.60751-0.0401 0.0508-0.0226 0.13343-0.0623 0.11994-0.11629-0.01258-0.0503-0.11849-1e-3 -0.14966-0.0428-0.02595-0.0346-0.0092-0.0877 0-0.12985 0.0119-0.0547 0.02581-0.11828 0.06988-0.15279 0.11264-0.0878 0.28548-0.0365 0.42187-0.0798 0.10672-0.034 0.22139-0.0654 0.30558-0.13924 0.07776-0.0682 0.16002-0.16005 0.16426-0.26334 0.0019-0.0476-0.06813-0.0791-0.0657-0.12672 0.0028-0.0542 0.10332-0.0837 0.08917-0.1361-0.01186-0.044-0.07884-0.0466-0.12202-0.061-0.13288-0.0442-0.36398 0.0559-0.41353-0.0751-0.01341-0.0354 0.0353-0.0754 0.0704-0.0897 0.06868-0.0281 0.14708 0.0231 0.2211 0.0282 0.14216 0.0111 0.28517 1.7e-4 0.4276 5e-3 0.12537 4e-3 0.25407 0.0504 0.37546 0.0188 0.05719-0.0148 0.09597-0.0716 0.1507-0.0939 0.08906-0.0362 0.19001-0.0319 0.28159-0.061 0.04587-0.0146 0.11873-0.0108 0.13297-0.0568 0.01436-0.0463-0.05306-0.0816-0.07822-0.12306-0.07456-0.12303-0.12192-0.26492-0.21589-0.3739-0.07619-0.0883-0.16979-0.16457-0.27377-0.21745-0.13926-0.0707-0.29992-0.0895-0.45212-0.12463-0.17012-0.0394-0.34157-0.0732-0.51469-0.0959-0.07267-9e-3 -0.14726-2e-3 -0.21902-0.0167-0.08263-0.0171-0.15761-0.062-0.23935-0.0829-0.20559-0.0528-0.41788-0.0754-0.62785-0.10638-0.2186-0.0323-0.43706-0.0972-0.65757-0.0829-0.10049 6e-3 -0.25518-0.0174-0.29254 0.0761-0.02417 0.0605 0.04962 0.12942 0.10325 0.16635 0.08172 0.0564 0.19989 0.0195 0.29202 0.0563 0.12388 0.0496 0.34484 0.0832 0.33687 0.21641-0.01007 0.16852-0.29038 0.18698-0.45576 0.22058-0.2627 0.0536-0.53673-9e-3 -0.80306-0.0396-0.14783-0.0171-0.29182-0.0589-0.43908-0.0803-0.14964-0.0219-0.30651-5e-3 -0.45107-0.049-0.11685-0.0359-0.3082-0.0504-0.32435-0.17156-0.01303-0.0978 0.13336-0.14915 0.21641-0.20233 0.0074-5e-3 0.01545-8e-3 0.02294-0.0125a13.186 13.186 0 0 1 2.2783-0.24561c0.01961 2e-3 0.03947 2e-3 0.05893 5e-3 0.17243 0.0305 0.32869 0.13321 0.5027 0.15279 0.12012 0.0135 0.25009 0.0204 0.3619-0.0256 0.02671-0.0111 0.06571-0.028 0.06571-0.0568 0-0.0201-0.01281-0.0349-0.0292-0.048a13.186 13.186 0 0 1 11.923 9.4323 13.418 13.418 0 0 0-13.04-10.327zm-1.688 7.4398c-0.07719 4e-3 -0.15359 0.0151-0.22684 0.0375-0.18071 0.0553-0.44423 0.0992-0.49175 0.28212-0.0049 0.0188 0.01295 0.0405 0.03025 0.0495 0.07155 0.036 0.16394 5e-3 0.23883-0.0229 0.07931-0.0301 0.12316-0.13129 0.20598-0.14966 0.06275-0.0139 0.12915 0.0138 0.18929 0.0365 0.03483 0.0132 0.06082 0.0466 0.09647 0.0568 0.08178 0.0247 0.17271-8e-3 0.25552 0.013 0.06054 0.0151 0.11121 0.0574 0.16948 0.0798 0.10366 0.0397 0.229 0.0316 0.31914 0.0965 0.11872 0.0854 0.25396 0.35773 0.25396 0.35773l0.65497 0.0798s0.26943-0.0951 0.25135-0.20077c-0.01784-0.10423-0.20346-0.0613-0.29984-0.10481-0.10662-0.0481-0.20515-0.11295-0.3061-0.17209-0.1634-0.0956-0.3094-0.22473-0.48497-0.29567-0.19779-0.0799-0.41149-0.12359-0.6242-0.13923-0.07639-6e-3 -0.15434-8e-3 -0.23153-4e-3zm2.2439 0.73735c-0.01822-3.9e-4 -0.03636 2e-3 -0.05475 7e-3v5.2e-4c-0.04772 0.0139-0.10577 0.0642-0.09699 0.11316 0.0085 0.0476 0.11184 0.0244 0.12672 0.0704 0.01701 0.0527-0.02353 0.12072-0.0704 0.15019-0.11406 0.071-0.30168-0.0921-0.40414-5e-3 -0.03251 0.0277-0.04512 0.0931-0.01877 0.12672 0.10878 0.13885 0.35039 0.043 0.52668 0.0501 0.11559 4e-3 0.24142-0.0544 0.3473-8e-3 0.08845 0.0389 0.0977 0.19244 0.19086 0.21797 0.09868 0.0272 0.1898-0.0899 0.29202-0.0949 0.12586-6e-3 0.24588 0.0559 0.3692 0.0819 0.08869 0.0187 0.17942 0.0779 0.26647 0.0527 0.07189-0.0208 0.16562-0.0796 0.1627-0.15436-0.0017-0.0423-0.06097-0.0609-0.09856-0.0803-0.07447-0.0385-0.17297-0.0202-0.24196-0.0678-0.0704-0.0486-0.08823-0.15039-0.15279-0.2065-0.09254-0.0804-0.20266-0.15342-0.32331-0.17521-0.144-0.026-0.289 0.0719-0.43491 0.0605-0.13374-0.0103-0.25785-0.13699-0.38537-0.13976zm2.1219 0.51365c-0.04683 8e-5 -0.09115 7e-3 -0.12672 0.0344-0.02788 0.0215-0.04827 0.065-0.03807 0.0986 0.02508 0.0827 0.12843 0.12697 0.21172 0.15018 0.10135 0.0281 0.21962 0.0222 0.31445-0.0235 0.05593-0.0268 0.1268-0.074 0.12724-0.1361 3.13e-4 -0.0443-0.04984-0.0792-0.08969-0.0986-0.07761-0.0378-0.17179-0.0201-0.25813-0.0188-0.04486 5e-4 -0.09396-6e-3 -0.1408-6e-3z" fill="url(#linearGradient2788)" style="paint-order:markers stroke fill"/>
 </g>
</svg>
