<?xml version="1.0" encoding="UTF-8"?>
<!-- Created with Inkscape (http://www.inkscape.org/) -->
<svg width="60" height="60" version="1.1" viewBox="0 0 15.875 15.875" xmlns="http://www.w3.org/2000/svg" xmlns:cc="http://creativecommons.org/ns#" xmlns:dc="http://purl.org/dc/elements/1.1/" xmlns:rdf="http://www.w3.org/1999/02/22-rdf-syntax-ns#">
 <metadata>
  <rdf:RDF>
   <cc:Work rdf:about="">
    <dc:format>image/svg+xml</dc:format>
    <dc:type rdf:resource="http://purl.org/dc/dcmitype/StillImage"/>
    <dc:title/>
   </cc:Work>
  </rdf:RDF>
 </metadata>
 <g transform="translate(0 -281.12)">
  <g transform="matrix(1.0924 0 0 1.0924 -.63861 -26.448)" fill="#404e5b">
   <path transform="matrix(.26458 0 0 .26458 0 281.12)" d="m29.674 1.6641a18.309 18.309 0 0 0-18.311 18.309 18.309 18.309 0 0 0 18.311 18.309 18.309 18.309 0 0 0 18.309-18.309 18.309 18.309 0 0 0-18.309-18.309zm0 11.619a6.6894 6.6894 0 0 1 6.6895 6.6895 6.6894 6.6894 0 0 1-6.6895 6.6895 6.6894 6.6894 0 0 1-6.6895-6.6895 6.6894 6.6894 0 0 1 6.6895-6.6895z" style="paint-order:markers stroke fill"/>
   <path d="m3.6557 288.83h8.3906l-4.1953 7.2665z"/>
  </g>
 </g>
</svg>
