<?xml version="1.0" encoding="UTF-8"?>
<!-- Created with Inkscape (http://www.inkscape.org/) -->
<svg width="64" height="64" version="1.1" viewBox="0 0 16.933 16.933" xmlns="http://www.w3.org/2000/svg" xmlns:cc="http://creativecommons.org/ns#" xmlns:dc="http://purl.org/dc/elements/1.1/" xmlns:rdf="http://www.w3.org/1999/02/22-rdf-syntax-ns#">
 <metadata>
  <rdf:RDF>
   <cc:Work rdf:about="">
    <dc:format>image/svg+xml</dc:format>
    <dc:type rdf:resource="http://purl.org/dc/dcmitype/StillImage"/>
    <dc:title/>
   </cc:Work>
  </rdf:RDF>
 </metadata>
 <g transform="matrix(1.1569 0 0 1.1569 -1.5436 -325.44)">
  <path d="m2.4034 282.74s-0.23589 7.6862-0.26524 10.138c-0.00129 0.10811 0.15995-0.19679 0.26727-0.18375 0.13312 0.0162 0.13927 0.2607 0.26727 0.30068 0.20238 0.0632 0.42694-0.24214 0.61806-0.15034 0.083083 0.0399 0.061978 0.17657 0.11693 0.25057 0.084636 0.11397 0.2403 0.16476 0.31738 0.28397 0.13004 0.20112 0.052244 0.51121 0.21716 0.68488 0.13104 0.13799 0.34555 0.17819 0.53454 0.20045 0.13375 0.0157 0.27294-0.0921 0.4009-0.0501 0.13847 0.0454 0.21142 0.20063 0.31738 0.30068 0.094512 0.0892 0.1648 0.21536 0.28397 0.26727 0.076742 0.0334 0.17859 0.0594 0.25057 0.0167 0.068547-0.0407 0.036285-0.16954 0.10023-0.21716 0.094732-0.0706 0.23377-0.0661 0.35079-0.0501 0.15067 0.0207 0.30746 0.0789 0.41761 0.18375 0.072141 0.0687 0.037145 0.24255 0.13363 0.26727 0.085285 0.0219 0.13374-0.12219 0.21716-0.15034 0.11619-0.0392 0.25399 0.0297 0.3675-0.0167 0.20074-0.0821 0.27991-0.36216 0.48443-0.43431 0.099905-0.0352 0.24338-0.0591 0.31738 0.0167 0.1362 0.13951-0.092331 0.42303 0.016703 0.58466 0.10877 0.16123 0.38696 0.10719 0.53454 0.23386 0.15004 0.12878 0.13645 0.42138 0.31738 0.50113 0.23288 0.10264 0.55766 0.031 0.7517-0.13364 0.15307-0.1299 0.053016-0.43168 0.20045-0.56794 0.06348-0.0587 0.1803-0.0165 0.25057-0.0668 0.04896-0.0351 0.09104-0.0908 0.10023-0.15034 0.0336-0.2177-0.25127-0.4251-0.18375-0.63477 0.03039-0.0944 0.17996-0.10054 0.23386-0.18374 0.06242-0.0963 0.03386-0.2306 0.08352-0.33409 0.07564-0.15763 0.14294-0.40577 0.31738-0.41761 0.13356-9e-3 0.21678 0.16819 0.28397 0.28397 0.03186 0.0549 0.06641 0.12239 0.05011 0.18375-0.01011 0.038-0.08983 0.0446-0.08352 0.0835 0.01 0.0615 0.10668 0.0987 0.16704 0.0835 0.17825-0.0449 0.2485-0.28058 0.31738-0.45102 0.06758-0.1672 0.04853-0.35763 0.08352-0.53454 0.02778-0.14044 0.0059-0.30995 0.10023-0.41761 0.10223-0.11665 0.31947-0.0628 0.43431-0.16704 0.12906-0.11717 0.10373-0.35175 0.23386-0.46772 0.04865-0.0434 0.1229-0.0901 0.18375-0.0668 0.08838 0.0339 0.04589 0.21506 0.13364 0.25056 0.16813 0.068 0.36038-0.077 0.51784-0.16704 0.11642-0.0666 0.20738-0.17095 0.30068-0.26727 0.2118-0.21866 0.39212-0.46578 0.58465-0.70158 0.0902-0.11047 0.25033-0.19249 0.26727-0.33409 0.01095-0.0915-0.11459-0.15842-0.11693-0.25056-0.0049-0.19226 0.05761-0.42715 0.21716-0.53454 0.03233-0.0218 0.08831 0.0265 0.11693 0 0.15588-0.14406 0.0152-0.42541 0.05011-0.63477 0.0331-0.19848 0.06489-0.40247 0.15034-0.58465 0.0525-0.11193 0.1882-0.18049 0.21716-0.30068 0.03431-0.1424-0.07448-0.28804-0.06682-0.43431 0.0057-0.10925 0.10414-0.20995 0.08352-0.31738-0.03001-0.1564-0.31141-0.22733-0.28397-0.3842 0.01729-0.0989 0.15162-0.18399 0.25056-0.16705 0.02744 5e-3 0.02248 0.0634 0.05011 0.0668 0.07856 0.01 0.18615-0.0712 0.18375-0.15034-0.05081-1.6726-0.07783-3.523-0.13364-5.2452-0.01139-0.35149-0.64455 0.28158-0.96885 0.4176-0.42146 0.17677-0.87583 0.28573-1.2695 0.51784-0.22174 0.13073-0.4014 0.32234-0.60136 0.48443-0.21212 0.17196-0.38241 0.41352-0.63476 0.51783-0.15514 0.0641-0.3333 0.0541-0.50113 0.0501-0.15194-4e-3 -0.29975-0.0815-0.45102-0.0668-0.28221 0.0274-0.53733 0.18177-0.80181 0.28397-0.17459 0.0675-0.33082 0.20944-0.51783 0.21716-0.18429 8e-3 -0.34328-0.14746-0.52619-0.17123-0.11298-0.0147-0.22848 3e-3 -0.34125 0.0192-0.1245 0.0179-0.24174 0.0832-0.3675 0.0856-0.11268 2e-3 -0.26192 0.0239-0.33192-0.0644-0.046149-0.0582-0.034717-0.16245 0.0087-0.22276 0.12707-0.1765 0.40115-0.17095 0.61018-0.23098 0.1228-0.0353 0.36667 0.0523 0.37585-0.0752 0.011358-0.15765-0.29003-0.13886-0.44684-0.15869-0.124-0.0157-0.24849 0.0312-0.37345 0.0336-0.1095 2e-3 -0.22941 0.0305-0.32813-0.0169-0.060437-0.029-0.076089-0.11593-0.13363-0.15034-0.10316-0.0617-0.24586-0.0249-0.35079-0.0835-0.10311-0.0576-0.14437-0.19885-0.25057-0.25057-0.060725-0.0296-0.20115-0.0245-0.20115-0.0245-0.17568 9e-3 -0.37133-2e-3 -0.37133-2e-3 -1.8582 0.0915-1.7871 0.0234-2.7401 0.0454z" fill="none" stroke="#000" stroke-width=".365"/>
  <path d="m7.7013 288.34c0.13687 0 0.16934 0.78797 0.28007 0.86842 0.11073 0.0804 0.87017-0.13217 0.91247-2e-3 0.042295 0.13017-0.69708 0.40455-0.73937 0.53472-0.042295 0.13017 0.39459 0.78674 0.28386 0.86719-0.11073 0.0805-0.60016-0.53795-0.73703-0.53795s-0.6263 0.6184-0.73703 0.53795c-0.11073-0.0804 0.32616-0.73702 0.28386-0.86719-0.042295-0.13017-0.78167-0.40455-0.73937-0.53472 0.042295-0.13018 0.80174 0.0824 0.91247 2e-3 0.11073-0.0805 0.1432-0.86842 0.28007-0.86842z" style="paint-order:markers stroke fill"/>
 </g>
</svg>
