<?xml version="1.0" encoding="UTF-8"?>
<!-- Created with Inkscape (http://www.inkscape.org/) -->
<svg width="100" height="100" version="1.1" viewBox="0 0 26.458 26.458" xmlns="http://www.w3.org/2000/svg" xmlns:cc="http://creativecommons.org/ns#" xmlns:dc="http://purl.org/dc/elements/1.1/" xmlns:osb="http://www.openswatchbook.org/uri/2009/osb" xmlns:rdf="http://www.w3.org/1999/02/22-rdf-syntax-ns#" xmlns:xlink="http://www.w3.org/1999/xlink">
 <defs>
  <linearGradient id="linearGradient3401" x1="16.464" x2="75.76" y1="9.4633" y2="83.392" gradientUnits="userSpaceOnUse">
   <stop stop-color="#9393ac" offset="0"/>
   <stop stop-color="#6f6f91" offset="1"/>
  </linearGradient>
 </defs>
 <metadata>
  <rdf:RDF>
   <cc:Work rdf:about="">
    <dc:format>image/svg+xml</dc:format>
    <dc:type rdf:resource="http://purl.org/dc/dcmitype/StillImage"/>
    <dc:title/>
   </cc:Work>
  </rdf:RDF>
 </metadata>
 <g transform="translate(0 -270.54)">
  <path transform="matrix(.26458 0 0 .26458 0 270.54)" d="m50.895-0.0019531c-0.50801 5.8717e-5 -1.0172 0.0097721-1.5254 0.029297-5.4211 0.20825-10.845 1.5329-15.959 4.082-20.454 10.196-28.151 36.127-17.34 57.814 2.3301 4.6743 5.3368 8.7784 8.8223 12.242l-18.607 16.963 2.0469 0.90234 13.25-10.9-12.631 18.869 3.2734-1.6777 15.459-21.615c12.582 10.579 30.08 13.601 44.99 6.168 5.4928-2.7381 9.5544-8.9091 10.246-15.023 0.48067-4.2486-2.1181-8.0937-4.3242-11.5-1.103-1.7032-2.1481-3.3021-2.7832-4.6738-0.63509-1.3717-0.80871-2.4184-0.5918-3.1445 0.19926-0.66705 0.5732-0.92908 1.7051-1.1953 1.1319-0.26608 2.8164-0.30034 4.6211-0.31055 1.8047-0.011339 3.7395-0.006555 5.5586-0.35352 1.8191-0.34809 3.6434-1.1109 4.7539-2.791 1.8923-2.8629 2.0443-6.3192 1.4473-9.6113-0.59703-3.2922-1.9393-6.5131-3.2852-9.2129-7.8552-15.758-23.379-25.062-39.127-25.061zm0.035157 3.0215c14.59 6.675e-4 29.024 8.6203 36.383 23.383 1.2717 2.551 2.504 5.5657 3.0195 8.4082 0.5155 2.8426 0.32219 5.4216-0.98828 7.4043-0.50433 0.76297-1.403 1.2218-2.8066 1.4902-1.4037 0.26835-3.1933 0.28434-5.0039 0.29492-1.8106 0.011339-3.6403 0.009323-5.3008 0.40039-1.6605 0.39058-3.3574 1.4127-3.9121 3.2695-0.53702 1.7977-0.034246 3.5917 0.74609 5.2773 0.78044 1.6857 1.8926 3.3571 2.9883 5.0488 2.1913 3.3835 4.1686 6.8001 3.8613 9.5156-0.56226 4.9699-4.2399 10.487-8.584 12.652-13.742 6.8505-29.934 4.1137-41.641-5.7031l30.305-24.928-1.5684-5.9395-20.289 18.496 12.053-16.852-1.9883-3.8711-19.838 29.633-1.2402 1.1309c-3.2932-3.2563-6.1386-7.1291-8.3457-11.557-10.129-20.318-2.9109-44.345 15.982-53.764 4.7233-2.3546 9.7347-3.5717 14.756-3.7637 0.47074-0.018 0.94147-0.027365 1.4121-0.027344zm5.9492 5.3984a8.5728 5.0147 4.4814 0 0-7.4805 4.3711 8.5728 5.0147 4.4814 0 0 8.1543 5.668 8.5728 5.0147 4.4814 0 0 8.9395-4.3301 8.5728 5.0147 4.4814 0 0-8.1562-5.668 8.5728 5.0147 4.4814 0 0-1.457-0.041016zm-19.195 4.666a5.0147 8.5728 48.045 0 0-6.9062 3.1074 5.0147 8.5728 48.045 0 0-3.0234 9.4609 5.0147 8.5728 48.045 0 0 9.7285-2.002 5.0147 8.5728 48.045 0 0 3.0234-9.4609 5.0147 8.5728 48.045 0 0-2.8223-1.1055zm29.713 10.562c-0.003625-0.029201-0.038735-0.005516-0.10938 0.078125-5.6079 6.64-12.098 7.4986-15.9 10.27-3.802 2.7709-2.0278 6.7525 0.23438 8.3535 2.2621 1.601 4.6198-0.01288 6.752-3.0254 1.9989-2.8243 9.0778-15.238 9.0234-15.676zm13.787 7.1562c-1.8314 0.098171-15.458 4.2796-17.9 6.3926-2.791 2.4148-3.5828 6.0721-1.7695 8.168 1.8133 2.0958 5.5449 1.8367 8.3359-0.57812 2.791-2.4148 5.6554-10.381 11.33-13.756 0.28679-0.17056 0.26553-0.24059 0.003906-0.22656zm-56.629 3.3262a5.0147 8.5728 4.4989 0 0-5.3164 8.1602 5.0147 8.5728 4.4989 0 0 4.3281 8.9395 5.0147 8.5728 4.4989 0 0 5.6699-8.1523 5.0147 8.5728 4.4989 0 0-4.3262-8.9395 5.0147 8.5728 4.4989 0 0-0.35547-0.007813z" fill="url(#linearGradient3401)" style="paint-order:markers stroke fill"/>
 </g>
</svg>
