<?xml version="1.0" encoding="UTF-8"?>
<svg id="svelte" width="64" height="64" version="1.1" viewBox="0 0 64 64" xmlns="http://www.w3.org/2000/svg" xmlns:cc="http://creativecommons.org/ns#" xmlns:dc="http://purl.org/dc/elements/1.1/" xmlns:rdf="http://www.w3.org/1999/02/22-rdf-syntax-ns#">
 <metadata>
  <rdf:RDF>
   <cc:Work rdf:about="">
    <dc:format>image/svg+xml</dc:format>
    <dc:type rdf:resource="http://purl.org/dc/dcmitype/StillImage"/>
    <dc:title/>
   </cc:Work>
  </rdf:RDF>
 </metadata>
 <g transform="matrix(.57165 0 0 .57165 -7.772 35.113)">
  <path id="back" d="m110.23-46.61c-10.4-14.88-30.94-19.29-45.79-9.83l-26.08 16.62a29.9 29.9 0 0 0-13.52 20 31.53 31.53 0 0 0 3.1 20.24 29.94 29.94 0 0 0-4.47 11.18 31.86 31.86 0 0 0 5.45 24.12c10.4 14.88 30.94 19.29 45.79 9.83l26.08-16.55a30 30 0 0 0 13.52-20 31.52 31.52 0 0 0-3.11-20.23 30.13 30.13 0 0 0 4.48-11.18 31.9 31.9 0 0 0-5.45-24.12" fill="#ff3e00"/>
  <path id="front" d="m61.89 37.16a20.73 20.73 0 0 1-22.24-8.25 19.14 19.14 0 0 1-3.27-14.5 17 17 0 0 1 0.62-2.41l0.49-1.5 1.34 1a33.78 33.78 0 0 0 10.17 5.06l1 0.29-0.09 1a5.9 5.9 0 0 0 1.09 3.85 6.25 6.25 0 0 0 6.7 2.48 5.85 5.85 0 0 0 1.6-0.7l26.04-16.62a5.42 5.42 0 0 0 2.45-3.64 5.77 5.77 0 0 0-1-4.37 6.25 6.25 0 0 0-6.7-2.48 5.72 5.72 0 0 0-1.6 0.7l-10 6.35a19.1 19.1 0 0 1-5.29 2.32 20.72 20.72 0 0 1-22.2-8.24 19.16 19.16 0 0 1-3.25-14.5 18 18 0 0 1 8.13-12.06l26.12-16.62a19.05 19.05 0 0 1 5.26-2.32 20.71 20.71 0 0 1 22.23 8.25 19.14 19.14 0 0 1 3.28 14.5 20.15 20.15 0 0 1-0.62 2.43l-0.5 1.5-1.33-1a33.78 33.78 0 0 0-10.2-5.1l-1-0.29 0.09-1a5.86 5.86 0 0 0-1.06-3.88 6.23 6.23 0 0 0-6.66-2.41 5.72 5.72 0 0 0-1.6 0.7l-26.09 16.59a5.45 5.45 0 0 0-2.45 3.63 5.84 5.84 0 0 0 1 4.38 6.25 6.25 0 0 0 6.65 2.48 6 6 0 0 0 1.6-0.7l10-6.34a18.61 18.61 0 0 1 5.3-2.33 20.7 20.7 0 0 1 22.23 8.24 19.16 19.16 0 0 1 3.28 14.5 18 18 0 0 1-8.13 12.06l-26.09 16.62a19.18 19.18 0 0 1-5.3 2.33" fill="#fff"/>
 </g>
</svg>
