<?xml version="1.0" encoding="UTF-8"?>
<!-- Created with Inkscape (http://www.inkscape.org/) -->
<svg width="60" height="60" version="1.1" viewBox="0 0 15.875 15.875" xmlns="http://www.w3.org/2000/svg" xmlns:cc="http://creativecommons.org/ns#" xmlns:dc="http://purl.org/dc/elements/1.1/" xmlns:rdf="http://www.w3.org/1999/02/22-rdf-syntax-ns#">
 <metadata>
  <rdf:RDF>
   <cc:Work rdf:about="">
    <dc:format>image/svg+xml</dc:format>
    <dc:type rdf:resource="http://purl.org/dc/dcmitype/StillImage"/>
    <dc:title/>
   </cc:Work>
  </rdf:RDF>
 </metadata>
 <g transform="translate(0 -281.12)" fill="none">
  <path transform="matrix(1.1686 -.67244 .67472 1.1647 -191.83 -42.985)" d="m6.8406 283.49h2.1938v1.8241h-2.1938v-1.8241"/>
  <g transform="matrix(1.265 0 0 1.265 -2.1038 -76.615)" stroke="#404e5b" stroke-linecap="square">
   <path transform="matrix(.26458 0 0 .26458 0 281.12)" d="m26.783 6.6816c-0.277 0-0.5 0.223-0.5 0.5v5.2559a17.956 17.958 0 0 0-6.0527 2.5371l-3.7383-3.7383c-0.19587-0.19587-0.51116-0.19587-0.70703 0l-4.5488 4.5508c-0.19587 0.19587-0.19587 0.51116 0 0.70703l3.7363 3.7363a17.956 17.958 0 0 0-2.5156 6.0527h-5.2754c-0.277 0-0.5 0.223-0.5 0.5v6.4355c0 0.277 0.223 0.5 0.5 0.5h5.2676a17.956 17.958 0 0 0 2.5195 6.0566l-3.7324 3.7324c-0.19587 0.19587-0.19587 0.51116 0 0.70703l4.5488 4.5508c0.19587 0.19587 0.51116 0.19587 0.70703 0l3.7305-3.7305a17.956 17.958 0 0 0 6.0605 2.5137v5.2715c0 0.277 0.223 0.5 0.5 0.5h6.4336c0.277 0 0.5-0.223 0.5-0.5v-5.2695a17.956 17.958 0 0 0 6.0566-2.5195l3.7344 3.7344c0.19587 0.19587 0.51116 0.19587 0.70703 0l4.5488-4.5508c0.19587-0.19587 0.19587-0.51116 0-0.70703l-3.7305-3.7305a17.956 17.958 0 0 0 2.5137-6.0586h5.2715c0.277 0 0.5-0.223 0.5-0.5v-6.4355c0-0.277-0.223-0.5-0.5-0.5h-5.2578a17.956 17.958 0 0 0-2.5137-6.0723l3.7168-3.7168c0.19587-0.19587 0.19587-0.51116 0-0.70703l-4.5488-4.5508c-0.09793-0.09793-0.22571-0.14648-0.35352-0.14648-0.12781 0-0.25558 0.04855-0.35352 0.14648l-3.7246 3.7246a17.956 17.958 0 0 0-6.0664-2.5039v-5.2754c0-0.277-0.223-0.5-0.5-0.5z" stroke-width=".79049" style="paint-order:stroke markers fill"/>
   <circle cx="7.9375" cy="289.06" r="2.8371" stroke-width=".20915" style="paint-order:stroke markers fill"/>
  </g>
 </g>
</svg>
