<?xml version="1.0" encoding="UTF-8"?>
<!-- Created with Inkscape (http://www.inkscape.org/) -->
<svg width="100" height="100" version="1.1" viewBox="0 0 26.458 26.458" xmlns="http://www.w3.org/2000/svg" xmlns:cc="http://creativecommons.org/ns#" xmlns:dc="http://purl.org/dc/elements/1.1/" xmlns:rdf="http://www.w3.org/1999/02/22-rdf-syntax-ns#" xmlns:xlink="http://www.w3.org/1999/xlink">
 <defs>
  <linearGradient id="linearGradient939" x1="-.75391" x2="100.75" y1="-.74805" y2="100.75" gradientTransform="matrix(.26067 0 0 .26067 .19652 270.74)" gradientUnits="userSpaceOnUse">
   <stop stop-color="#0cf" offset="0"/>
   <stop stop-color="#0f6" offset="1"/>
  </linearGradient>
 </defs>
 <metadata>
  <rdf:RDF>
   <cc:Work rdf:about="">
    <dc:format>image/svg+xml</dc:format>
    <dc:type rdf:resource="http://purl.org/dc/dcmitype/StillImage"/>
    <dc:title/>
   </cc:Work>
  </rdf:RDF>
 </metadata>
 <g transform="translate(0 -270.54)">
  <path d="m13.229 270.54c-4.9044 0-8.8841 3.9797-8.8841 8.8841-3e-7 0.34464 0.021834 0.68431 0.060076 1.0188-2.6335 1.5423-4.4054 4.3993-4.4054 7.6694-2.94e-6 4.9044 3.9817 8.8861 8.8861 8.8861 1.578 0 3.059-0.41439 4.3438-1.1369 1.2849 0.72261 2.7662 1.1369 4.3443 1.1369 4.9044 0 8.8841-3.9817 8.8841-8.8861-2e-6 -3.2706-1.7708-6.1282-4.4044-7.6704 0.03816-0.3341 0.05957-0.67346 0.05957-1.0177-3e-6 -4.9044-3.9797-8.8841-8.8841-8.8841zm0 0.39049c4.6931 0 8.4936 3.8005 8.4936 8.4936 0 0.27413-0.01487 0.5451-0.04022 0.81256-1.2292-0.64295-2.626-1.0086-4.1086-1.0086-1.5781 0-3.0595 0.41356-4.3443 1.1358-1.2847-0.72215-2.7659-1.1358-4.3438-1.1358-1.4833 0-2.8807 0.36602-4.1106 1.0096-0.025416-0.26778-0.039711-0.5391-0.039711-0.81357 2.6e-6 -4.6931 3.8005-8.4936 8.4936-8.4936zm-4.3433 8.6881c1.4292 0 2.7748 0.35367 3.9564 0.97648-2.1091 1.3309-3.6192 3.5232-4.0353 6.0829-2.1113-1.2892-3.6137-3.4746-3.9823-6.0285 1.2063-0.65753 2.5898-1.031 4.0612-1.031zm8.6881 0c1.4706 0 2.8534 0.37309 4.0592 1.0299-0.36828 2.5534-1.8698 4.7384-3.9803 6.028-0.41637-2.5591-1.9266-4.7508-4.0353-6.0814 1.1815-0.62281 2.5271-0.97648 3.9564-0.97648zm-4.3443 1.1939c2.1519 1.2827 3.6874 3.4889 4.0607 6.0738-1.2063 0.65754-2.5898 1.0315-4.0612 1.0315-1.4708 0-2.8537-0.3739-4.0597-1.031 0.37314-2.5849 1.9083-4.7915 4.0602-6.0743zm8.7665 0.0458c2.4422 1.4913 4.0714 4.1812 4.0714 7.2539 3e-6 4.6931-3.8005 8.4931-8.4936 8.4931-1.4287 0-2.7736-0.35364-3.9548-0.97598 2.493-1.5745 4.1508-4.3527 4.1508-7.5171 0-0.34464-0.02183-0.68431-0.06008-1.0188 2.2396-1.312 3.8539-3.5752 4.2863-6.2352zm-17.534 2e-3c0.43278 2.6599 2.0473 4.923 4.2873 6.2346-0.038162 0.33409-0.059567 0.67346-0.059567 1.0177-1.8e-6 3.1644 1.6579 5.9426 4.1508 7.5171-1.1812 0.62234-2.5262 0.97598-3.9548 0.97598-4.6931 0-8.4931-3.8-8.4931-8.4931 1.64e-6 -3.0718 1.6284-5.7608 4.0694-7.2524zm12.878 6.4388c0.02542 0.26778 0.03971 0.53909 0.03971 0.81357 1e-6 3.1052-1.6646 5.8179-4.1498 7.2992-2.485-1.4814-4.1493-4.1942-4.1493-7.2992 2e-7 -0.27413 0.014358-0.5451 0.039711-0.81256 1.2292 0.64304 2.6264 1.0086 4.1091 1.0086 1.4834 0 2.8809-0.36598 4.1106-1.0096z" color="#000000" color-rendering="auto" dominant-baseline="auto" fill="url(#linearGradient939)" image-rendering="auto" shape-rendering="auto" solid-color="#000000" style="font-feature-settings:normal;font-variant-alternates:normal;font-variant-caps:normal;font-variant-ligatures:normal;font-variant-numeric:normal;font-variant-position:normal;isolation:auto;mix-blend-mode:normal;paint-order:stroke markers fill;shape-padding:0;text-decoration-color:#000000;text-decoration-line:none;text-decoration-style:solid;text-indent:0;text-orientation:mixed;text-transform:none;white-space:normal"/>
 </g>
</svg>
